<?xml version="1.0" encoding="UTF-8" standalone="no"?>
<svg
   xmlns:dc="http://purl.org/dc/elements/1.1/"
   xmlns:cc="http://creativecommons.org/ns#"
   xmlns:rdf="http://www.w3.org/1999/02/22-rdf-syntax-ns#"
   xmlns:svg="http://www.w3.org/2000/svg"
   xmlns="http://www.w3.org/2000/svg"
   xmlns:sodipodi="http://sodipodi.sourceforge.net/DTD/sodipodi-0.dtd"
   xmlns:inkscape="http://www.inkscape.org/namespaces/inkscape"
   width="915.40826"
   height="530.52917"
   viewBox="0 0 457.70414 265.26458"
   version="1.1"
   xml:space="preserve"
   style="clip-rule:evenodd;fill-rule:evenodd;stroke-miterlimit:1.41420996"
   id="svg262"
   sodipodi:docname="Meiosis_Overview_new.svg"
   inkscape:version="0.92.0 r"><metadata
     id="metadata268"><rdf:RDF><cc:Work
         rdf:about=""><dc:format>image/svg+xml</dc:format><dc:type
           rdf:resource="http://purl.org/dc/dcmitype/StillImage" /><dc:title></dc:title></cc:Work></rdf:RDF></metadata><defs
     id="defs266" /><sodipodi:namedview
     pagecolor="#ffffff"
     bordercolor="#666666"
     borderopacity="1"
     objecttolerance="10"
     gridtolerance="10"
     guidetolerance="10"
     inkscape:pageopacity="0"
     inkscape:pageshadow="2"
     inkscape:window-width="1366"
     inkscape:window-height="713"
     id="namedview264"
     showgrid="false"
     inkscape:pagecheckerboard="true"
     fit-margin-top="0"
     fit-margin-left="0"
     fit-margin-right="0"
     fit-margin-bottom="0"
     inkscape:zoom="1.0729879"
     inkscape:cx="347.00884"
     inkscape:cy="253.56672"
     inkscape:window-x="1440"
     inkscape:window-y="328"
     inkscape:window-maximized="1"
     inkscape:current-layer="svg262"
     scale-x="0.5" /><g
     id="path2384"
     transform="matrix(1.11985,0,0,1.08677,-20.272645,-64.015452)"><path
       d="m 115.846,175.057 c 0,27.485 -21.949,50.101 -48.622,50.101 -26.673,0 -48.621,-22.616 -48.621,-50.101 0,0 0,0 0,0 0,-27.485 21.948,-50.101 48.621,-50.101 26.673,0 48.622,22.616 48.622,50.101 z"
       style="fill:#ffe3e3;fill-rule:nonzero;stroke:#000000;stroke-width:1px"
       id="path2"
       inkscape:connector-curvature="0" /></g><g
     id="path3158"
     transform="matrix(1.11985,0,0,1.08677,117.72716,-65.015452)"><path
       d="m 115.846,175.057 c 0,27.485 -21.949,50.101 -48.622,50.101 -26.673,0 -48.621,-22.616 -48.621,-50.101 0,0 0,0 0,0 0,-27.485 21.948,-50.101 48.621,-50.101 26.673,0 48.622,22.616 48.622,50.101 z"
       style="fill:#ffe6e6;fill-rule:nonzero;stroke:#000000;stroke-width:1px"
       id="path5"
       inkscape:connector-curvature="0" /></g><path
     id="path3160"
     d="m 19.518155,97.049348 9.513,-0.211 -0.635,34.246002 c 0,0 0.106,6.078 -3.911,7.557 -2.008,0.053 -3.329,-2.114 -4.65,-5.285 -0.955,-3.28 -0.529,-5.972 -0.476,-5.972 1.178,-6.447 3.752,-12.366 4.387,-17.863 -0.255,-5.923 -4.334,-5.39 -4.44,-8.878 z"
     style="fill:#d3eaf2;stroke:#000000;stroke-width:1px"
     inkscape:connector-curvature="0" /><path
     id="path3162"
     d="m 57.818155,118.94935 9.684,-0.212 -0.645,34.397 c 0,0 0.107,6.104 -3.982,7.59 -2.044,0.054 -3.389,-2.123 -4.734,-5.308 -0.973,-3.295 -0.538,-5.998 -0.484,-5.998 1.198,-6.476 3.819,-12.421 4.465,-17.942 -0.259,-5.949 -4.412,-5.414 -4.519,-8.917 z"
     style="fill:#f20000;stroke:#000000;stroke-width:1.00999999px"
     inkscape:connector-curvature="0" /><path
     id="path3164"
     d="m 74.982155,95.113348 11.411,-0.267 -0.761,43.229002 c 0,0 0.127,7.672 -4.691,9.54 -2.409,0.066 -3.994,-2.669 -5.579,-6.672 -1.145,-4.14 -0.634,-7.538 -0.57,-7.538 1.412,-8.138 4.501,-15.61 5.261,-22.548 -0.305,-7.477 -5.198,-6.805 -5.325,-11.208002 z"
     style="fill:#fd0100;stroke:#000000;stroke-width:1.23000002px"
     inkscape:connector-curvature="0" /><path
     id="path3166"
     d="m 35.713155,98.624348 11.41,-0.267 -0.76,43.229002 c 0,0 0.127,7.672 -4.691,9.54 -2.409,0.066 -3.994,-2.669 -5.579,-6.672 -1.146,-4.14 -0.634,-7.538 -0.571,-7.538 1.413,-8.138 4.501,-15.61 5.262,-22.548 -0.305,-7.477 -5.198,-6.805 -5.325,-11.208 z"
     style="fill:#d3eaf2;stroke:#000000;stroke-width:1.23000002px"
     inkscape:connector-curvature="0" /><g
     id="g3334"
     transform="translate(-1.991844,-32.768652)"><path
       id="path3198"
       d="m 153.516,136.829 c 2.487,-1.918 5.456,-1.121 7.026,-0.598 1.524,2.58 -0.374,8.615 0.299,9.156 1.27,0.859 3.737,0.822 4.933,-0.112 0.471,-0.368 -1.869,-7.063 -1.084,-8.708 0.896,-0.559 6.166,-1.233 7.661,0.113 1.079,3.258 -3.7,9.535 -3.737,12.257 0.135,3.674 4.148,14.873 4.036,25.113 -0.299,2.038 -1.084,3.699 -4.036,3.737 -2.577,-0.748 -2.84,-2.243 -2.99,-3.737 -0.289,-2.207 0.337,-19.059 0.299,-21.227 -0.261,-1.614 -0.635,-3.139 -2.541,-3.139 -1.428,0 -1.831,0.524 -2.765,2.392 -0.508,3.319 0.523,17.564 0.074,22.422 -0.311,1.405 -1.27,3.662 -3.288,3.588 -1.567,0.155 -3.887,-1.794 -3.737,-4.858 0.02,-8.996 4.26,-20.33 4.11,-24.441 0.191,-3.821 -5.231,-6.577 -4.26,-11.958 z"
       style="fill:#d3eaf2;stroke:#000000;stroke-width:1px"
       inkscape:connector-curvature="0" /><path
       id="path3291"
       d="m 157.486,145.791 c -0.024,-0.044 -0.102,-0.18 -0.171,-0.304 -0.184,-0.325 -0.493,-0.807 -1.125,-1.758 -0.815,-1.225 -1.091,-1.677 -1.406,-2.296 -0.734,-1.442 -0.998,-2.777 -0.82,-4.148 0.024,-0.188 0.006,-0.165 0.25,-0.321 0.72,-0.459 1.528,-0.733 2.391,-0.811 0.356,-0.032 1.031,-0.028 1.364,0.008 0.679,0.074 1.379,0.226 2.111,0.458 l 0.112,0.035 0.079,0.185 c 0.278,0.655 0.404,1.668 0.361,2.895 -0.03,0.842 -0.068,1.275 -0.253,2.867 -0.153,1.323 -0.156,1.357 -0.183,1.8 l -0.022,0.37 -1.315,0.55 c -0.722,0.302 -1.317,0.549 -1.321,0.549 -0.004,0 -0.027,-0.035 -0.052,-0.079 z"
       style="fill:none;stroke:#000000;stroke-width:0.02px"
       inkscape:connector-curvature="0" /></g><g
     id="g3329"
     transform="translate(-1.991844,-32.768652)"><g
       id="path3202"
       transform="translate(-28.7002,-0.747402)"><path
         d="m 240.428,132.765 c 3.087,-2.435 6.772,-1.423 8.72,-0.759 1.892,3.276 -0.464,10.936 0.371,11.622 1.577,1.092 4.639,1.044 6.123,-0.142 0.585,-0.467 -2.319,-8.966 -1.345,-11.053 1.113,-0.71 7.653,-1.565 9.509,0.143 1.339,4.136 -4.592,12.104 -4.639,15.559 0.168,4.664 5.149,18.88 5.01,31.878 -0.371,2.588 -1.345,4.697 -5.01,4.744 -3.198,-0.949 -3.525,-2.846 -3.71,-4.744 -0.36,-2.8 0.417,-24.193 0.371,-26.944 -0.325,-2.05 -0.789,-3.985 -3.155,-3.985 -1.772,0 -2.272,0.664 -3.432,3.036 -0.63,4.213 0.649,22.296 0.093,28.463 -0.387,1.783 -1.577,4.648 -4.082,4.554 -1.944,0.196 -4.824,-2.278 -4.639,-6.167 0.026,-11.419 5.288,-25.807 5.103,-31.025 0.236,-4.851 -6.494,-8.349 -5.288,-15.18 z"
         style="fill:#d3eaf2;fill-rule:nonzero;stroke:#000000;stroke-width:1.25999999px"
         id="path57"
         inkscape:connector-curvature="0" /></g><path
       id="path3311"
       d="m 228.547,144.523 -1.602,-1.003 0.232,-0.161 c 0.456,-0.315 0.548,-0.619 0.442,-1.457 -0.074,-0.582 -0.222,-1.315 -0.735,-3.625 -0.642,-2.894 -0.88,-4.475 -0.834,-5.526 0.025,-0.578 0.032,-0.596 0.242,-0.668 0.262,-0.09 0.85,-0.234 1.248,-0.305 2.379,-0.428 5.025,-0.388 6.354,0.095 0.309,0.112 0.637,0.295 0.658,0.365 0.098,0.332 0.128,1.302 0.055,1.773 -0.181,1.176 -0.536,2.353 -1.201,3.987 -0.312,0.767 -0.571,1.349 -1.398,3.154 -1.026,2.239 -1.486,3.325 -1.738,4.101 -0.049,0.151 -0.096,0.274 -0.105,0.274 -0.008,0 -0.736,-0.452 -1.618,-1.004 z"
       style="fill:none;stroke:#000000;stroke-width:0.03px"
       inkscape:connector-curvature="0" /></g><g
     id="g3325"
     transform="translate(-1.991844,-32.768652)"><path
       id="path3204"
       d="m 179.083,156.553 c 3.087,-2.435 6.772,-1.423 8.72,-0.759 1.892,3.275 -0.464,10.936 0.371,11.622 1.577,1.091 4.639,1.044 6.123,-0.142 0.585,-0.468 -2.319,-8.966 -1.345,-11.053 1.113,-0.71 7.653,-1.566 9.509,0.142 1.339,4.137 -4.592,12.104 -4.639,15.56 0.168,4.663 5.149,18.88 5.01,31.878 -0.371,2.587 -1.345,4.696 -5.01,4.744 -3.198,-0.949 -3.525,-2.847 -3.711,-4.744 -0.359,-2.801 0.418,-24.193 0.372,-26.945 -0.325,-2.049 -0.789,-3.985 -3.155,-3.985 -1.772,0 -2.272,0.665 -3.432,3.036 -0.63,4.213 0.649,22.296 0.093,28.463 -0.387,1.784 -1.577,4.649 -4.082,4.554 -1.945,0.197 -4.824,-2.277 -4.639,-6.167 0.026,-11.419 5.288,-25.806 5.103,-31.024 0.236,-4.851 -6.494,-8.349 -5.288,-15.18 z"
       style="fill:#fd0100;stroke:#000000;stroke-width:1.25999999px"
       inkscape:connector-curvature="0" /><path
       id="path3315"
       d="m 184.612,169.273 c -0.019,-0.049 -0.069,-0.18 -0.112,-0.292 -0.297,-0.782 -0.919,-1.878 -1.994,-3.515 -1.219,-1.856 -1.805,-2.882 -2.213,-3.875 -0.574,-1.399 -0.801,-2.797 -0.678,-4.165 0.049,-0.549 0.031,-0.511 0.358,-0.723 0.82,-0.531 1.831,-0.886 2.861,-1.004 0.46,-0.052 1.421,-0.044 1.906,0.016 0.752,0.093 1.58,0.275 2.275,0.5 0.337,0.109 0.353,0.118 0.399,0.229 0.299,0.713 0.431,1.427 0.484,2.6 0.054,1.214 -0.011,2.224 -0.318,4.937 -0.264,2.34 -0.281,3.065 -0.083,3.555 0.037,0.09 0.061,0.169 0.053,0.176 -0.007,0.007 -0.618,0.353 -1.357,0.769 -0.739,0.416 -1.389,0.785 -1.445,0.819 l -0.101,0.061 z"
       style="fill:none;stroke:#000000;stroke-width:0.03px"
       inkscape:connector-curvature="0" /></g><g
     id="g3321"
     transform="translate(-1.991844,-32.768652)"><path
       id="path3200"
       d="m 179.284,112.021 c 2.487,-1.918 5.456,-1.121 7.026,-0.598 1.524,2.58 -0.374,8.615 0.299,9.156 1.27,0.859 3.737,0.822 4.932,-0.112 0.472,-0.368 -1.868,-7.063 -1.083,-8.707 0.896,-0.56 6.166,-1.234 7.661,0.112 1.079,3.258 -3.7,9.535 -3.737,12.257 0.134,3.674 4.148,14.873 4.036,25.113 -0.299,2.038 -1.084,3.699 -4.036,3.737 -2.577,-0.748 -2.841,-2.243 -2.99,-3.737 -0.289,-2.207 0.336,-19.059 0.299,-21.227 -0.262,-1.614 -0.635,-3.139 -2.541,-3.139 -1.428,0 -1.831,0.524 -2.766,2.392 -0.507,3.319 0.524,17.564 0.075,22.422 -0.311,1.405 -1.27,3.662 -3.288,3.588 -1.567,0.155 -3.887,-1.794 -3.737,-4.858 0.02,-8.996 4.26,-20.33 4.11,-24.44 0.19,-3.822 -5.232,-6.578 -4.26,-11.959 z"
       style="fill:#fd0100;stroke:#000000;stroke-width:1px"
       inkscape:connector-curvature="0" /><path
       id="path3319"
       d="m 183.452,121.387 c -0.287,-0.606 -0.582,-1.093 -1.471,-2.426 -0.861,-1.292 -1.137,-1.744 -1.459,-2.39 -0.452,-0.906 -0.69,-1.656 -0.806,-2.547 -0.041,-0.31 -0.041,-1.135 0,-1.464 0.016,-0.13 0.034,-0.243 0.039,-0.252 0.005,-0.008 0.091,-0.068 0.189,-0.132 1.443,-0.945 3.262,-1.113 5.446,-0.504 0.163,0.046 0.359,0.103 0.435,0.128 l 0.139,0.044 0.059,0.136 c 0.394,0.91 0.485,2.339 0.281,4.434 -0.034,0.352 -0.094,0.879 -0.21,1.86 -0.114,0.969 -0.125,1.101 -0.125,1.609 -0.001,0.399 0.003,0.474 0.027,0.561 0.016,0.055 0.023,0.104 0.016,0.111 -0.016,0.014 -2.423,1.062 -2.439,1.062 -0.007,0 -0.061,-0.103 -0.121,-0.23 z"
       style="fill:none;stroke:#000000;stroke-width:0.02px"
       inkscape:connector-curvature="0" /></g><g
     id="path3382"
     transform="matrix(0.763532,0,0,0.74098,263.83716,-43.943052)"><path
       d="m 115.846,175.057 c 0,27.485 -21.949,50.101 -48.622,50.101 -26.673,0 -48.621,-22.616 -48.621,-50.101 0,0 0,0 0,0 0,-27.485 21.948,-50.101 48.621,-50.101 26.673,0 48.622,22.616 48.622,50.101 z"
       style="fill:#ffe3e3;fill-rule:nonzero;stroke:#000000;stroke-width:1px"
       id="path68"
       inkscape:connector-curvature="0" /></g><g
     id="g3338"
     transform="translate(166.48216,-69.872252)"><path
       id="path3340"
       d="m 153.516,136.829 c 2.487,-1.918 5.456,-1.121 7.026,-0.598 1.524,2.58 -0.374,8.615 0.299,9.156 1.27,0.859 3.737,0.822 4.933,-0.112 0.471,-0.368 -1.869,-7.063 -1.084,-8.708 0.896,-0.559 6.166,-1.233 7.661,0.113 1.079,3.258 -3.7,9.535 -3.737,12.257 0.135,3.674 4.148,14.873 4.036,25.113 -0.299,2.038 -1.084,3.699 -4.036,3.737 -2.577,-0.748 -2.84,-2.243 -2.99,-3.737 -0.289,-2.207 0.337,-19.059 0.299,-21.227 -0.261,-1.614 -0.635,-3.139 -2.541,-3.139 -1.428,0 -1.831,0.524 -2.765,2.392 -0.508,3.319 0.523,17.564 0.074,22.422 -0.311,1.405 -1.27,3.662 -3.288,3.588 -1.567,0.155 -3.887,-1.794 -3.737,-4.858 0.02,-8.996 4.26,-20.33 4.11,-24.441 0.191,-3.821 -5.231,-6.577 -4.26,-11.958 z"
       style="fill:#d3eaf2;stroke:#000000;stroke-width:1px"
       inkscape:connector-curvature="0" /><path
       id="path3342"
       d="m 157.486,145.791 c -0.024,-0.044 -0.102,-0.18 -0.171,-0.304 -0.184,-0.325 -0.493,-0.807 -1.125,-1.758 -0.815,-1.225 -1.091,-1.677 -1.406,-2.296 -0.734,-1.442 -0.998,-2.777 -0.82,-4.148 0.024,-0.188 0.006,-0.165 0.25,-0.321 0.72,-0.459 1.528,-0.733 2.391,-0.811 0.356,-0.032 1.031,-0.028 1.364,0.008 0.679,0.074 1.379,0.226 2.111,0.458 l 0.112,0.035 0.079,0.185 c 0.278,0.655 0.404,1.668 0.361,2.895 -0.03,0.842 -0.068,1.275 -0.253,2.867 -0.153,1.323 -0.156,1.357 -0.183,1.8 l -0.022,0.37 -1.315,0.55 c -0.722,0.302 -1.317,0.549 -1.321,0.549 -0.004,0 -0.027,-0.035 -0.052,-0.079 z"
       style="fill:#fd0100;stroke:#000000;stroke-width:0.02px"
       inkscape:connector-curvature="0" /></g><g
     id="path3384"
     transform="matrix(0.763532,0,0,0.74098,263.77016,35.551348)"><path
       d="m 115.846,175.057 c 0,27.485 -21.949,50.101 -48.622,50.101 -26.673,0 -48.621,-22.616 -48.621,-50.101 0,0 0,0 0,0 0,-27.485 21.948,-50.101 48.621,-50.101 26.673,0 48.622,22.616 48.622,50.101 z"
       style="fill:#ffe3e3;fill-rule:nonzero;stroke:#000000;stroke-width:1px"
       id="path74"
       inkscape:connector-curvature="0" /></g><g
     id="g3344"
     transform="translate(142.21416,34.185648)"><path
       id="path3346"
       d="m 179.284,112.021 c 2.487,-1.918 5.456,-1.121 7.026,-0.598 1.524,2.58 -0.374,8.615 0.299,9.156 1.27,0.859 3.737,0.822 4.932,-0.112 0.472,-0.368 -1.868,-7.063 -1.083,-8.707 0.896,-0.56 6.166,-1.234 7.661,0.112 1.079,3.258 -3.7,9.535 -3.737,12.257 0.134,3.674 4.148,14.873 4.036,25.113 -0.299,2.038 -1.084,3.699 -4.036,3.737 -2.577,-0.748 -2.841,-2.243 -2.99,-3.737 -0.289,-2.207 0.336,-19.059 0.299,-21.227 -0.262,-1.614 -0.635,-3.139 -2.541,-3.139 -1.428,0 -1.831,0.524 -2.766,2.392 -0.507,3.319 0.524,17.564 0.075,22.422 -0.311,1.405 -1.27,3.662 -3.288,3.588 -1.567,0.155 -3.887,-1.794 -3.737,-4.858 0.02,-8.996 4.26,-20.33 4.11,-24.44 0.19,-3.822 -5.232,-6.578 -4.26,-11.959 z"
       style="fill:#fd0100;stroke:#000000;stroke-width:1px"
       inkscape:connector-curvature="0" /><path
       id="path3348"
       d="m 183.452,121.387 c -0.287,-0.606 -0.582,-1.093 -1.471,-2.426 -0.861,-1.292 -1.137,-1.744 -1.459,-2.39 -0.452,-0.906 -0.69,-1.656 -0.806,-2.547 -0.041,-0.31 -0.041,-1.135 0,-1.464 0.016,-0.13 0.034,-0.243 0.039,-0.252 0.005,-0.008 0.091,-0.068 0.189,-0.132 1.443,-0.945 3.262,-1.113 5.446,-0.504 0.163,0.046 0.359,0.103 0.435,0.128 l 0.139,0.044 0.059,0.136 c 0.394,0.91 0.485,2.339 0.281,4.434 -0.034,0.352 -0.094,0.879 -0.21,1.86 -0.114,0.969 -0.125,1.101 -0.125,1.609 -0.001,0.399 0.003,0.474 0.027,0.561 0.016,0.055 0.023,0.104 0.016,0.111 -0.016,0.014 -2.423,1.062 -2.439,1.062 -0.007,0 -0.061,-0.103 -0.121,-0.23 z"
       style="fill:#d3eaf2;stroke:#000000;stroke-width:0.02px"
       inkscape:connector-curvature="0" /></g><g
     id="g3350"
     transform="translate(110.87216,-95.490752)"><path
       id="path3352"
       d="m 179.083,156.553 c 3.087,-2.435 6.772,-1.423 8.72,-0.759 1.892,3.275 -0.464,10.936 0.371,11.622 1.577,1.091 4.639,1.044 6.123,-0.142 0.585,-0.468 -2.319,-8.966 -1.345,-11.053 1.113,-0.71 7.653,-1.566 9.509,0.142 1.339,4.137 -4.592,12.104 -4.639,15.56 0.168,4.663 5.149,18.88 5.01,31.878 -0.371,2.587 -1.345,4.696 -5.01,4.744 -3.198,-0.949 -3.525,-2.847 -3.711,-4.744 -0.359,-2.801 0.418,-24.193 0.372,-26.945 -0.325,-2.049 -0.789,-3.985 -3.155,-3.985 -1.772,0 -2.272,0.665 -3.432,3.036 -0.63,4.213 0.649,22.296 0.093,28.463 -0.387,1.784 -1.577,4.649 -4.082,4.554 -1.945,0.197 -4.824,-2.277 -4.639,-6.167 0.026,-11.419 5.288,-25.806 5.103,-31.024 0.236,-4.851 -6.494,-8.349 -5.288,-15.18 z"
       style="fill:#fd0100;stroke:#000000;stroke-width:1.25999999px"
       inkscape:connector-curvature="0" /><path
       id="path3354"
       d="m 184.612,169.273 c -0.019,-0.049 -0.069,-0.18 -0.112,-0.292 -0.297,-0.782 -0.919,-1.878 -1.994,-3.515 -1.219,-1.856 -1.805,-2.882 -2.213,-3.875 -0.574,-1.399 -0.801,-2.797 -0.678,-4.165 0.049,-0.549 0.031,-0.511 0.358,-0.723 0.82,-0.531 1.831,-0.886 2.861,-1.004 0.46,-0.052 1.421,-0.044 1.906,0.016 0.752,0.093 1.58,0.275 2.275,0.5 0.337,0.109 0.353,0.118 0.399,0.229 0.299,0.713 0.431,1.427 0.484,2.6 0.054,1.214 -0.011,2.224 -0.318,4.937 -0.264,2.34 -0.281,3.065 -0.083,3.555 0.037,0.09 0.061,0.169 0.053,0.176 -0.007,0.007 -0.618,0.353 -1.357,0.769 -0.739,0.416 -1.389,0.785 -1.445,0.819 l -0.101,0.061 z"
       style="fill:#d3eaf2;stroke:#000000;stroke-width:0.03px"
       inkscape:connector-curvature="0" /></g><g
     id="g3356"
     transform="translate(82.226955,9.7941488)"><g
       id="path3360"
       transform="translate(-28.7002,-0.747402)"><path
         d="m 240.428,132.765 c 3.087,-2.435 6.772,-1.423 8.72,-0.759 1.892,3.276 -0.464,10.936 0.371,11.622 1.577,1.092 4.639,1.044 6.123,-0.142 0.585,-0.467 -2.319,-8.966 -1.345,-11.053 1.113,-0.71 7.653,-1.565 9.509,0.143 1.339,4.136 -4.592,12.104 -4.639,15.559 0.168,4.664 5.149,18.88 5.01,31.878 -0.371,2.588 -1.345,4.697 -5.01,4.744 -3.198,-0.949 -3.525,-2.846 -3.71,-4.744 -0.36,-2.8 0.417,-24.193 0.371,-26.944 -0.325,-2.05 -0.789,-3.985 -3.155,-3.985 -1.772,0 -2.272,0.664 -3.432,3.036 -0.63,4.213 0.649,22.296 0.093,28.463 -0.387,1.783 -1.577,4.648 -4.082,4.554 -1.944,0.196 -4.824,-2.278 -4.639,-6.167 0.026,-11.419 5.288,-25.807 5.103,-31.025 0.236,-4.851 -6.494,-8.349 -5.288,-15.18 z"
         style="fill:#d3eaf2;fill-rule:nonzero;stroke:#000000;stroke-width:1.25999999px"
         id="path83"
         inkscape:connector-curvature="0" /></g><path
       id="path3362"
       d="m 228.547,144.523 -1.602,-1.003 0.232,-0.161 c 0.456,-0.315 0.548,-0.619 0.442,-1.457 -0.074,-0.582 -0.222,-1.315 -0.735,-3.625 -0.642,-2.894 -0.88,-4.475 -0.834,-5.526 0.025,-0.578 0.032,-0.596 0.242,-0.668 0.262,-0.09 0.85,-0.234 1.248,-0.305 2.379,-0.428 5.025,-0.388 6.354,0.095 0.309,0.112 0.637,0.295 0.658,0.365 0.098,0.332 0.128,1.302 0.055,1.773 -0.181,1.176 -0.536,2.353 -1.201,3.987 -0.312,0.767 -0.571,1.349 -1.398,3.154 -1.026,2.239 -1.486,3.325 -1.738,4.101 -0.049,0.151 -0.096,0.274 -0.105,0.274 -0.008,0 -0.736,-0.452 -1.618,-1.004 z"
       style="fill:#fd0100;stroke:#000000;stroke-width:0.03px"
       inkscape:connector-curvature="0" /></g><path
     id="path3368"
     d="m 196.67716,175.41235 9.934,26.589 -0.189,13.332 m 0.316,-13.201 7.145,-50.401"
     style="fill:none;stroke:#000000;stroke-width:1px"
     inkscape:connector-curvature="0" /><g
     id="path3472"
     transform="matrix(0.631186,0,0,0.612543,384.04916,-13.178452)"><path
       d="m 115.846,175.057 c 0,27.485 -21.949,50.101 -48.622,50.101 -26.673,0 -48.621,-22.616 -48.621,-50.101 0,0 0,0 0,0 0,-27.485 21.948,-50.101 48.621,-50.101 26.673,0 48.622,22.616 48.622,50.101 z"
       style="fill:#ffe6e6;fill-rule:nonzero;stroke:#000000;stroke-width:1px"
       id="path227"
       inkscape:connector-curvature="0" /></g><path
     id="path3402"
     d="m 416.06816,68.445348 12.323,-0.271 -0.821,43.999002 c 0,0 0.136,7.808 -5.066,9.71 -2.602,0.067 -4.313,-2.717 -6.025,-6.79 -1.237,-4.215 -0.685,-7.673 -0.616,-7.673 1.526,-8.284002 4.861,-15.889002 5.682,-22.950002 -0.329,-7.611 -5.614,-6.926 -5.751,-11.407 z"
     style="fill:#f20000;stroke:#000000;stroke-width:1.28999996px"
     inkscape:connector-curvature="0" /><g
     id="path3468"
     transform="matrix(0.631186,0,0,0.612543,384.04916,116.70935)"><path
       d="m 115.846,175.057 c 0,27.485 -21.949,50.101 -48.622,50.101 -26.673,0 -48.621,-22.616 -48.621,-50.101 0,0 0,0 0,0 0,-27.485 21.948,-50.101 48.621,-50.101 26.673,0 48.622,22.616 48.622,50.101 z"
       style="fill:#ffe6e6;fill-rule:nonzero;stroke:#000000;stroke-width:1px"
       id="path231"
       inkscape:connector-curvature="0" /></g><path
     id="path3404"
     d="m 433.41916,201.92135 9.685,-0.212 -0.646,34.397 c 0,0 0.108,6.104 -3.982,7.59 -2.044,0.053 -3.389,-2.123 -4.734,-5.308 -0.972,-3.295 -0.538,-5.998 -0.484,-5.998 1.199,-6.476 3.82,-12.421 4.465,-17.942 -0.259,-5.949 -4.412,-5.414 -4.519,-8.918 z"
     style="fill:#f20000;stroke:#000000;stroke-width:1.00999999px"
     inkscape:connector-curvature="0" /><g
     id="path3466"
     transform="matrix(0.631186,0,0,0.612543,384.26816,52.917048)"><path
       d="m 115.846,175.057 c 0,27.485 -21.949,50.101 -48.622,50.101 -26.673,0 -48.621,-22.616 -48.621,-50.101 0,0 0,0 0,0 0,-27.485 21.948,-50.101 48.621,-50.101 26.673,0 48.622,22.616 48.622,50.101 z"
       style="fill:#ffe3e3;fill-rule:nonzero;stroke:#000000;stroke-width:1px"
       id="path235"
       inkscape:connector-curvature="0" /></g><path
     id="path3406"
     d="m 415.86116,135.33335 12.322,-0.272 -0.821,43.999 c 0,0 0.137,7.809 -5.066,9.71 -2.602,0.068 -4.313,-2.716 -6.025,-6.79 -1.237,-4.214 -0.684,-7.672 -0.616,-7.672 1.526,-8.284 4.861,-15.889 5.682,-22.951 -0.329,-7.61 -5.613,-6.925 -5.75,-11.407 z"
     style="fill:#d3eaf2;stroke:#000000;stroke-width:1.28999996px"
     inkscape:connector-curvature="0" /><g
     id="path3470"
     transform="matrix(0.631186,0,0,0.612543,384.04916,-76.234652)"><path
       d="m 115.846,175.057 c 0,27.485 -21.949,50.101 -48.622,50.101 -26.673,0 -48.621,-22.616 -48.621,-50.101 0,0 0,0 0,0 0,-27.485 21.948,-50.101 48.621,-50.101 26.673,0 48.622,22.616 48.622,50.101 z"
       style="fill:#ffe3e3;fill-rule:nonzero;stroke:#000000;stroke-width:1px"
       id="path239"
       inkscape:connector-curvature="0" /></g><path
     id="path3408"
     d="m 434.71116,13.831348 9.685,-0.212 -0.646,34.397 c 0,0 0.108,6.104 -3.981,7.59 -2.045,0.054 -3.39,-2.123 -4.735,-5.308 -0.972,-3.295 -0.538,-5.998 -0.484,-5.998 1.199,-6.476 3.82,-12.421 4.465,-17.942 -0.259,-5.949 -4.411,-5.414 -4.519,-8.917 z"
     style="fill:#d3eaf2;stroke:#000000;stroke-width:1.00999999px"
     inkscape:connector-curvature="0" /><g
     id="g3430"
     transform="translate(-1.991844,-158.76865)"><path
       id="path3410"
       d="m 418.369,163.956 12.323,-0.272 -0.821,43.999 c 0,0 0.137,7.809 -5.066,9.71 -2.602,0.068 -4.313,-2.716 -6.025,-6.79 -1.237,-4.215 -0.685,-7.673 -0.616,-7.673 1.526,-8.283 4.861,-15.888 5.682,-22.95 -0.329,-7.61 -5.614,-6.925 -5.751,-11.407 z"
       style="fill:#f20000;stroke:#000000;stroke-width:1.28999996px"
       inkscape:connector-curvature="0" /><path
       id="path3428"
       d="m 420.55,171.838 c -1.157,-1.13 -1.541,-1.737 -1.709,-2.698 -0.064,-0.368 -0.056,-0.819 0.04,-2.502 l 0.118,-2.054 0.521,0.002 c 0.287,10e-4 2.753,-0.047 5.48,-0.107 2.728,-0.059 4.971,-0.096 4.985,-0.082 0.058,0.061 -0.127,8.067 -0.188,8.123 -0.037,0.034 -1.843,0.078 -4.234,0.102 l -4.169,0.042 -0.844,-0.825 z"
       style="fill:#d3eaf2;stroke:#000000;stroke-width:0.06px"
       inkscape:connector-curvature="0" /></g><g
     id="g3442"
     transform="translate(-1.991844,-158.76865)"><path
       id="path3434"
       d="m 437.285,234.493 9.684,-0.212 -0.645,34.397 c 0,0 0.107,6.104 -3.982,7.591 -2.044,0.053 -3.389,-2.124 -4.735,-5.308 -0.972,-3.295 -0.538,-5.999 -0.484,-5.999 1.199,-6.475 3.82,-12.421 4.466,-17.941 -0.259,-5.95 -4.412,-5.415 -4.52,-8.918 z"
       style="fill:#d3eaf2;stroke:#000000;stroke-width:1.00999999px"
       inkscape:connector-curvature="0" /><path
       id="path3440"
       d="m 438.957,240.594 c -0.648,-0.634 -0.81,-0.834 -1.008,-1.241 -0.336,-0.691 -0.363,-0.987 -0.254,-2.764 0.052,-0.843 0.101,-1.54 0.11,-1.55 0.027,-0.028 8.575,-0.219 8.602,-0.192 0.023,0.023 -0.1,6.402 -0.124,6.419 -0.006,0.004 -1.483,0.025 -3.283,0.046 l -3.271,0.039 z"
       style="fill:#f20000;stroke:#000000;stroke-width:0.06px"
       inkscape:connector-curvature="0" /></g><g
     id="g3452"
     transform="translate(-1.991844,97.231348)"><path
       id="path3446"
       d="m 418.628,100.448 12.322,-0.272 -0.821,43.999 c 0,0 0.137,7.808 -5.066,9.71 -2.601,0.068 -4.313,-2.716 -6.024,-6.79 -1.238,-4.215 -0.685,-7.673 -0.617,-7.673 1.526,-8.283 4.861,-15.889 5.683,-22.95 -0.33,-7.61 -5.614,-6.926 -5.751,-11.407 z"
       style="fill:#d3eaf2;stroke:#000000;stroke-width:1.28999996px"
       inkscape:connector-curvature="0" /><path
       id="path3450"
       d="m 420.94,108.447 c -1.261,-1.231 -1.616,-1.757 -1.815,-2.688 -0.089,-0.417 -0.087,-0.657 0.016,-2.54 l 0.115,-2.08 0.393,-0.033 c 0.471,-0.04 10.572,-0.251 10.599,-0.221 0.014,0.016 -0.141,8.433 -0.157,8.5 -0.002,0.009 -1.842,0.016 -4.09,0.015 h -4.086 l -0.975,-0.952 z"
       style="fill:#f20000;stroke:#000000;stroke-width:0.06px"
       inkscape:connector-curvature="0" /></g><g
     id="g3462"
     transform="translate(-1.991844,97.231348)"><path
       id="path3456"
       d="m 436.057,44.42 9.685,-0.212 -0.646,34.397 c 0,0 0.108,6.104 -3.981,7.591 -2.045,0.053 -3.39,-2.124 -4.735,-5.309 -0.972,-3.294 -0.538,-5.998 -0.484,-5.998 1.199,-6.476 3.82,-12.421 4.465,-17.941 -0.259,-5.95 -4.411,-5.415 -4.519,-8.918 z"
       style="fill:#f20000;stroke:#000000;stroke-width:1.00999999px"
       inkscape:connector-curvature="0" /><path
       id="path3460"
       d="m 437.763,50.568 c -0.68,-0.666 -0.846,-0.868 -1.043,-1.272 -0.334,-0.687 -0.368,-1.021 -0.265,-2.612 0.048,-0.746 0.089,-1.446 0.091,-1.555 l 0.003,-0.199 4.297,-0.085 c 2.364,-0.047 4.312,-0.071 4.33,-0.054 0.032,0.032 -0.089,6.394 -0.122,6.427 -0.01,0.01 -1.397,0.035 -3.083,0.055 -1.685,0.02 -3.14,0.048 -3.232,0.062 -0.141,0.022 -0.294,-0.098 -0.976,-0.767 z"
       style="fill:#d3eaf2;stroke:#000000;stroke-width:0.06px"
       inkscape:connector-curvature="0" /></g><path
     id="path3478"
     d="m 133.34216,124.95735 -3.496,2.5 v -5 z m -20.302,-0.039 16.806,0.039"
     style="fill:#000000;stroke:#000000;stroke-width:1px"
     inkscape:connector-curvature="0" /><path
     id="path3487"
     d="m 271.43016,149.83035 -4.24,-0.704 3.536,-3.536 z m -14.328,-14.383 11.856,11.911"
     style="fill:#000000;stroke:#000000;stroke-width:1px"
     inkscape:connector-curvature="0" /><path
     id="path3489"
     d="m 271.38016,100.14835 -0.705,4.24 -3.535,-3.535 z m -14.384,14.328 11.912,-11.855"
     style="fill:#000000;stroke:#000000;stroke-width:1px"
     inkscape:connector-curvature="0" /><path
     id="path3491"
     d="m 383.07316,94.376348 -4.182,0.991 1.893,-4.628 z m -18.775,-7.723 15.54,6.4"
     style="fill:#000000;stroke:#000000;stroke-width:1px"
     inkscape:connector-curvature="0" /><path
     id="path3493"
     d="m 378.83916,51.453348 -0.677,4.245 -3.558,-3.513 z m -14.291,14.421 11.835,-11.933"
     style="fill:#000000;stroke:#000000;stroke-width:1px"
     inkscape:connector-curvature="0" /><path
     id="path3495"
     d="m 379.11616,200.10835 -4.24,-0.704 3.536,-3.536 z m -14.328,-14.383 11.856,11.911"
     style="fill:#000000;stroke:#000000;stroke-width:1px"
     inkscape:connector-curvature="0" /><path
     id="path3497"
     d="m 383.24216,157.65435 -2.399,3.566 -1.751,-4.683 z m -19.029,7.076 15.755,-5.852"
     style="fill:#000000;stroke:#000000;stroke-width:1px"
     inkscape:connector-curvature="0" /><text
     xml:space="preserve"
     style="font-style:normal;font-weight:normal;font-size:40px;line-height:7px;font-family:Sans;letter-spacing:0px;word-spacing:0px;fill:#000000;fill-opacity:1;stroke:none;stroke-width:1px;stroke-linecap:butt;stroke-linejoin:miter;stroke-opacity:1"
     x="252.2569"
     y="26.857403"
     id="text4747"><tspan
       sodipodi:role="line"
       id="tspan4745"
       x="252.2569"
       y="26.857403"
       style="font-size:12px;line-height:7px;text-align:center;text-anchor:middle">Homologe Rekombination</tspan><tspan
       sodipodi:role="line"
       x="252.2569"
       y="41.13084"
       style="font-size:12px;line-height:7px;text-align:center;text-anchor:middle"
       id="tspan4813">und erste Zellteilung</tspan></text>
<text
     xml:space="preserve"
     style="font-style:normal;font-weight:normal;font-size:40px;line-height:25px;font-family:Sans;letter-spacing:0px;word-spacing:0px;fill:#000000;fill-opacity:1;stroke:none;stroke-width:1px;stroke-linecap:butt;stroke-linejoin:miter;stroke-opacity:1"
     x="84.339638"
     y="340.81876"
     id="text4751"><tspan
       sodipodi:role="line"
       id="tspan4749"
       x="84.339638"
       y="363.70938" /></text>
<text
     xml:space="preserve"
     style="font-style:normal;font-weight:normal;font-size:40px;line-height:25px;font-family:Sans;letter-spacing:0px;word-spacing:0px;clip-rule:evenodd;fill:#000000;fill-opacity:1;fill-rule:evenodd;stroke:none;stroke-width:1px;stroke-linecap:butt;stroke-linejoin:miter;stroke-miterlimit:1.41420996;stroke-opacity:1"
     x="346.51019"
     y="130.51889"
     id="text4747-3"><tspan
       sodipodi:role="line"
       id="tspan4745-6"
       x="346.51019"
       y="130.51889"
       style="font-size:12px">Meiose II</tspan></text>
<text
     xml:space="preserve"
     style="font-style:normal;font-weight:normal;font-size:40px;line-height:25px;font-family:Sans;letter-spacing:0px;word-spacing:0px;clip-rule:evenodd;fill:#000000;fill-opacity:1;fill-rule:evenodd;stroke:none;stroke-width:1px;stroke-linecap:butt;stroke-linejoin:miter;stroke-miterlimit:1.41420996;stroke-opacity:1"
     x="249.09819"
     y="129.64684"
     id="text4747-7"><tspan
       sodipodi:role="line"
       id="tspan4745-5"
       x="249.09819"
       y="129.64684"
       style="font-size:12px">Meiose I</tspan></text>
<text
     xml:space="preserve"
     style="font-style:normal;font-weight:normal;font-size:40px;line-height:7px;font-family:Sans;letter-spacing:0px;word-spacing:0px;clip-rule:evenodd;fill:#000000;fill-opacity:1;fill-rule:evenodd;stroke:none;stroke-width:1px;stroke-linecap:butt;stroke-linejoin:miter;stroke-miterlimit:1.41420996;stroke-opacity:1"
     x="126.28181"
     y="187.66557"
     id="text4747-35"><tspan
       sodipodi:role="line"
       x="126.28181"
       y="187.66557"
       style="font-size:12px;line-height:7px;text-align:center;text-anchor:middle"
       id="tspan4809">Interphase</tspan><tspan
       sodipodi:role="line"
       x="126.28181"
       y="201.93901"
       style="font-size:12px;line-height:7px;text-align:center;text-anchor:middle"
       id="tspan4839">DNA-Replikation</tspan></text>
<text
     xml:space="preserve"
     style="font-style:normal;font-weight:normal;font-size:40px;line-height:0px;font-family:Sans;letter-spacing:0px;word-spacing:0px;clip-rule:evenodd;fill:#000000;fill-opacity:1;fill-rule:evenodd;stroke:none;stroke-width:1px;stroke-linecap:butt;stroke-linejoin:miter;stroke-miterlimit:1.41420996;stroke-opacity:1"
     x="311.08881"
     y="262.76849"
     id="text4747-9"><tspan
       sodipodi:role="line"
       id="tspan4745-1"
       x="311.08881"
       y="262.76849"
       style="font-size:12px;line-height:0px">Zweite Zellteilung</tspan></text>
<text
     xml:space="preserve"
     style="font-style:normal;font-weight:normal;font-size:40px;line-height:7px;font-family:Sans;letter-spacing:0px;word-spacing:0px;clip-rule:evenodd;fill:#000000;fill-opacity:1;fill-rule:evenodd;stroke:none;stroke-width:1px;stroke-linecap:butt;stroke-linejoin:miter;stroke-miterlimit:1.41420996;stroke-opacity:1"
     x="207.84367"
     y="224.63618"
     id="text4747-9-2"><tspan
       sodipodi:role="line"
       id="tspan4745-1-7"
       x="207.84367"
       y="224.63618"
       style="font-size:12px;line-height:7px;text-align:center;text-anchor:middle">Homologe</tspan><tspan
       sodipodi:role="line"
       x="207.84367"
       y="238.90962"
       style="font-size:12px;line-height:7px;text-align:center;text-anchor:middle"
       id="tspan4835">Chromosomen</tspan></text>
</svg>